# xmcd CD database file
#
# Track frame offsets:
#	150
#	48301
#	77595
#	142077
#	190772
#	232164
#
# Disc length: 3209 seconds
#
# Revision: 0
# Processed by: cddbd v1.5.1PL0 Copyright (c) Steve Scherf et al.
# Submitted via: CDex 1.51
#
DISCID=4d0c8706
DTITLE=Emily Remler - Live at the Cock and Lion Room [CD1]
DYEAR=1983
DGENRE=Jazz
TTITLE0=untitled
TTITLE1=In a Sentimental Mood
TTITLE2=Little Sunflower
TTITLE3=Blues in Db (G!)
TTITLE4=Mocha Spice
TTITLE5=Oleo
EXTD=YEAR: 1983
EXTT0=
EXTT1=
EXTT2=
EXTT3=
EXTT4=
EXTT5=
PLAYORDER=
